<?xml version="1.0" standalone="no"?>
<!DOCTYPE svg PUBLIC "-//W3C//DTD SVG 1.1//EN"
"http://www.w3.org/Graphics/SVG/1.1/DTD/svg11.dtd">

<svg width="362" height="297" view_box="0 0 362 297"
xmlns="http://www.w3.org/2000/svg"
xmlns:link="http://www.w3.org/1999/xlink">\n\n<desc>Généré par Mocodo 2.3.7 le Wed, 17 Aug 2022 00:33:02</desc>

<rect id="frame" x="0" y="0" width="362" height="297" fill="#ffffbf" stroke="none" stroke-width="0"/>

<!-- Association contient -->
<line x1="61" y1="220" x2="61" y2="68" stroke="#f46d43" stroke-width="2"/>
<text x="66.0" y="161" fill="#4575b4" font-family="Verdana" font-size="12">1,N</text>
<line x1="177" y1="68" x2="61" y2="68" stroke="#f46d43" stroke-width="2"/>
<text x="99" y="85.0" fill="#4575b4" font-family="Verdana" font-size="12">1,1</text>
<g id="association-contient">
	<path d="M 79 43 a 14 14 90 0 1 14 14 V 68 h -64 V 57 a 14 14 90 0 1 14 -14" fill="#fdae61" stroke="#fdae61" stroke-width="0"/>
	<path d="M 93 68.0 v 11 a 14 14 90 0 1 -14 14 H 43 a 14 14 90 0 1 -14 -14 V 68.0 H 64" fill="#fee090" stroke="#fee090" stroke-width="0"/>
	<rect x="29" y="43" width="64" height="50" fill="none" rx="14" stroke="#f46d43" stroke-width="2"/>
	<line x1="29" y1="68" x2="93" y2="68" stroke="#f46d43" stroke-width="1"/>
	<text x="36" y="60.7" fill="#000000" font-family="Verdana" font-size="12">contient</text>
</g>

<!-- Association reçoit -->
<line x1="295" y1="220" x2="295" y2="68" stroke="#f46d43" stroke-width="2"/>
<text x="300.0" y="144" fill="#4575b4" font-family="Verdana" font-size="12">0,N</text>
<line x1="177" y1="68" x2="295" y2="68" stroke="#f46d43" stroke-width="2"/>
<text x="234" y="85.0" fill="#4575b4" font-family="Verdana" font-size="12">1,1</text>
<g id="association-reçoit">
	<path d="M 306 43 a 14 14 90 0 1 14 14 V 68 h -50 V 57 a 14 14 90 0 1 14 -14" fill="#fdae61" stroke="#fdae61" stroke-width="0"/>
	<path d="M 320 68.0 v 11 a 14 14 90 0 1 -14 14 H 284 a 14 14 90 0 1 -14 -14 V 68.0 H 50" fill="#fee090" stroke="#fee090" stroke-width="0"/>
	<rect x="270" y="43" width="50" height="50" fill="none" rx="14" stroke="#f46d43" stroke-width="2"/>
	<line x1="270" y1="68" x2="320" y2="68" stroke="#f46d43" stroke-width="1"/>
	<text x="277" y="60.7" fill="#000000" font-family="Verdana" font-size="12">reçoit</text>
</g>

<!-- Association envoie -->
<line x1="295" y1="220" x2="177" y2="220" stroke="#f46d43" stroke-width="2"/>
<text x="210" y="237.0" fill="#4575b4" font-family="Verdana" font-size="12">0,N</text>
<line x1="177" y1="68" x2="177" y2="220" stroke="#f46d43" stroke-width="2"/>
<text x="182.0" y="144" fill="#4575b4" font-family="Verdana" font-size="12">1,1</text>
<g id="association-envoie">
	<path d="M 191 195 a 14 14 90 0 1 14 14 V 220 h -56 V 209 a 14 14 90 0 1 14 -14" fill="#fdae61" stroke="#fdae61" stroke-width="0"/>
	<path d="M 205 220.0 v 11 a 14 14 90 0 1 -14 14 H 163 a 14 14 90 0 1 -14 -14 V 220.0 H 56" fill="#fee090" stroke="#fee090" stroke-width="0"/>
	<rect x="149" y="195" width="56" height="50" fill="none" rx="14" stroke="#f46d43" stroke-width="2"/>
	<line x1="149" y1="220" x2="205" y2="220" stroke="#f46d43" stroke-width="1"/>
	<text x="156" y="212.7" fill="#000000" font-family="Verdana" font-size="12">envoie</text>
</g>

<!-- Entity EXPEDITION -->
<g id="entity-EXPEDITION">
	<g id="frame-EXPEDITION">
		<rect x="9" y="169" width="104" height="25" fill="#abd9e9" stroke="#abd9e9" stroke-width="0"/>
		<rect x="9" y="194.0" width="104" height="77" fill="#e0f3f8" stroke="#e0f3f8" stroke-width="0"/>
		<rect x="9" y="169" width="104" height="102" fill="none" stroke="#74add1" stroke-width="2"/>
		<line x1="9" y1="194" x2="113" y2="194" stroke="#74add1" stroke-width="1"/>
	</g>
	<text x="22" y="186.7" fill="#000000" font-family="Verdana" font-size="12">EXPEDITION</text>
	<text x="14" y="211.7" fill="#000000" font-family="Verdana" font-size="12">livreur</text>
	<line x1="14" y1="214" x2="54" y2="214" stroke="#000000" stroke-width="1"/>
	<text x="14" y="228.8" fill="#000000" font-family="Verdana" font-size="12">véhicule</text>
	<text x="14" y="245.8" fill="#000000" font-family="Verdana" font-size="12">heure de début</text>
	<text x="14" y="262.8" fill="#000000" font-family="Verdana" font-size="12">heure de fin</text>
</g>

<!-- Entity ADRESSE -->
<g id="entity-ADRESSE">
	<g id="frame-ADRESSE">
		<rect x="237" y="152" width="116" height="25" fill="#abd9e9" stroke="#abd9e9" stroke-width="0"/>
		<rect x="237" y="177.0" width="116" height="111" fill="#e0f3f8" stroke="#e0f3f8" stroke-width="0"/>
		<rect x="237" y="152" width="116" height="136" fill="none" stroke="#74add1" stroke-width="2"/>
		<line x1="237" y1="177" x2="353" y2="177" stroke="#74add1" stroke-width="1"/>
	</g>
	<text x="266" y="169.7" fill="#000000" font-family="Verdana" font-size="12">ADRESSE</text>
	<text x="242" y="194.7" fill="#000000" font-family="Verdana" font-size="12">référence interne</text>
	<line x1="242" y1="197" x2="347" y2="197" stroke="#000000" stroke-width="1"/>
	<text x="242" y="211.7" fill="#000000" font-family="Verdana" font-size="12">nom</text>
	<text x="242" y="228.8" fill="#000000" font-family="Verdana" font-size="12">ligne principale</text>
	<text x="242" y="245.8" fill="#000000" font-family="Verdana" font-size="12">complément</text>
	<text x="242" y="262.8" fill="#000000" font-family="Verdana" font-size="12">code postal</text>
	<text x="242" y="279.8" fill="#000000" font-family="Verdana" font-size="12">ville</text>
</g>

<!-- Entity COLIS -->
<g id="entity-COLIS">
	<g id="frame-COLIS">
		<rect x="125" y="9" width="104" height="25" fill="#abd9e9" stroke="#abd9e9" stroke-width="0"/>
		<rect x="125" y="34.0" width="104" height="93" fill="#e0f3f8" stroke="#e0f3f8" stroke-width="0"/>
		<rect x="125" y="9" width="104" height="118" fill="none" stroke="#74add1" stroke-width="2"/>
		<line x1="125" y1="34" x2="229" y2="34" stroke="#74add1" stroke-width="1"/>
	</g>
	<text x="157" y="26.7" fill="#000000" font-family="Verdana" font-size="12">COLIS</text>
	<text x="130" y="51.7" fill="#000000" font-family="Verdana" font-size="12">numéro interne</text>
	<line x1="130" y1="54" x2="224" y2="54" stroke="#000000" stroke-width="1"/>
	<text x="130" y="68.8" fill="#000000" font-family="Verdana" font-size="12">contenu</text>
	<text x="130" y="85.8" fill="#000000" font-family="Verdana" font-size="12">poids</text>
	<text x="130" y="102.8" fill="#000000" font-family="Verdana" font-size="12">volume</text>
	<text x="130" y="119.8" fill="#000000" font-family="Verdana" font-size="12">valeur estimée</text>
</g>
</svg>